<svg id="Layer_1" data-name="Layer 1" xmlns="http://www.w3.org/2000/svg" viewBox="0 0 440 272"><defs><style>.cls-1{fill:#fff}.cls-2{fill:#515979}.cls-4{fill:#ef7d7d}.cls-5{fill:#ffe8a0}.cls-6{fill:#7ddf96}.cls-7{fill:#fde1d9}.cls-8{fill:#b4ecfb}.cls-10{fill:#6adaf7}.cls-11{fill:#f89d81}</style></defs><rect class="cls-1" x="132.81" y="56.53" width="174.37" height="158.94" rx="10.03"/><path class="cls-2" d="M297.16 58.84a7.72 7.72 0 017.71 7.72v138.88a7.72 7.72 0 01-7.71 7.72H142.84a7.72 7.72 0 01-7.71-7.72V66.56a7.72 7.72 0 017.71-7.72h154.32m0-4.62H142.84a12.35 12.35 0 00-12.34 12.34v138.88a12.35 12.35 0 0012.34 12.34h154.32a12.35 12.35 0 0012.34-12.34V66.56a12.35 12.35 0 00-12.34-12.34z"/><path d="M135.13 82.76a2.31 2.31 0 01-2.32-2.31V66.56a10 10 0 0110-10h154.35a10 10 0 0110 10v13.89a2.31 2.31 0 01-2.32 2.31z" fill="#667683"/><path class="cls-2" d="M297.16 58.84a7.72 7.72 0 017.71 7.72v13.89H135.13V66.56a7.72 7.72 0 017.71-7.72h154.32m0-4.62H142.84a12.35 12.35 0 00-12.34 12.34v13.89a4.63 4.63 0 004.63 4.63h169.74a4.63 4.63 0 004.63-4.63V66.56a12.35 12.35 0 00-12.34-12.34z"/><path class="cls-1" d="M204.57 75.05a5.4 5.4 0 010-10.8h88a5.4 5.4 0 110 10.8z"/><path class="cls-2" d="M292.53 66.56a3.09 3.09 0 010 6.17h-88a3.09 3.09 0 110-6.17h88m0-4.63h-88a7.72 7.72 0 100 15.43h88a7.72 7.72 0 000-15.43z"/><circle class="cls-4" cx="147.47" cy="69.65" r="5.4"/><path class="cls-2" d="M147.47 66.56a3.09 3.09 0 11-3.08 3.09 3.09 3.09 0 013.08-3.09m0-4.63a7.72 7.72 0 107.72 7.72 7.72 7.72 0 00-7.72-7.72z"/><circle class="cls-5" cx="165.99" cy="69.65" r="5.4"/><path class="cls-2" d="M166 66.56a3.09 3.09 0 11-3.08 3.09 3.09 3.09 0 013.08-3.09m0-4.63a7.72 7.72 0 107.72 7.72 7.72 7.72 0 00-7.72-7.72z"/><circle class="cls-6" cx="184.51" cy="69.65" r="5.4"/><path class="cls-2" d="M184.51 66.56a3.09 3.09 0 11-3.09 3.09 3.08 3.08 0 013.09-3.09m0-4.63a7.72 7.72 0 107.71 7.72 7.72 7.72 0 00-7.71-7.72zM236.59 113.32a1.47 1.47 0 01-.73-.19 6.73 6.73 0 00-5.49 0 1.54 1.54 0 11-1.45-2.72 9.81 9.81 0 018.4 0 1.55 1.55 0 01-.73 2.91z"/><circle class="cls-2" cx="233.12" cy="105.02" r="6.17"/><circle class="cls-1" cx="234.66" cy="105.02" r="1.54"/><path class="cls-2" d="M228.6 92.43a7.45 7.45 0 011.5-1 8.39 8.39 0 011.64-.66 8.93 8.93 0 013.66-.33c.32 0 .64.09.95.17s.63.19.93.29a9 9 0 01.89.41 4 4 0 01.83.52 6.82 6.82 0 012.34 2.85 1.58 1.58 0 01-2.12 2.07l-.3-.15a20.55 20.55 0 00-2.11-1 8.07 8.07 0 00-2-.52 12.71 12.71 0 00-2.26-.09c-.4 0-.82 0-1.24.1s-.89.12-1.25.12h-.47a1.56 1.56 0 01-1.54-1.55 1.57 1.57 0 01.55-1.23zM210.35 113.32a1.46 1.46 0 01-.72-.19 6.73 6.73 0 00-5.49 0 1.54 1.54 0 01-1.46-2.72 9.81 9.81 0 018.4 0 1.54 1.54 0 01.64 2.09 1.56 1.56 0 01-1.37.82z"/><circle class="cls-2" cx="206.88" cy="105.02" r="6.17"/><circle class="cls-1" cx="208.43" cy="105.02" r="1.54"/><path class="cls-2" d="M209.94 95.15c-.36 0-.84-.09-1.25-.12s-.84-.07-1.24-.1a12.71 12.71 0 00-2.26.09 8.07 8.07 0 00-2 .52 20.55 20.55 0 00-2.11 1l-.29.14a1.57 1.57 0 01-2.13-2.06 6.82 6.82 0 012.34-2.8 4 4 0 01.83-.52 9 9 0 01.89-.41c.3-.1.61-.21.93-.29s.63-.12.95-.17a8.93 8.93 0 013.66.33 8.39 8.39 0 011.64.66 7.45 7.45 0 011.5 1 1.54 1.54 0 01-1 2.72z"/><circle class="cls-7" cx="188.37" cy="110.92" r="1.93"/><circle class="cls-7" cx="192.61" cy="119.41" r="1.93"/><circle class="cls-7" cx="184.12" cy="119.41" r="1.93"/><circle class="cls-7" cx="251.63" cy="110.92" r="1.93"/><circle class="cls-7" cx="255.88" cy="119.41" r="1.93"/><circle class="cls-7" cx="247.39" cy="119.41" r="1.93"/><path class="cls-2" d="M220 135.61a15.83 15.83 0 01-15.82-15.81 1.93 1.93 0 011.93-1.93h27.78a1.93 1.93 0 011.93 1.93A15.83 15.83 0 01220 135.61z"/><path class="cls-2" d="M233.89 119.8a13.89 13.89 0 11-27.78 0h27.78m0-3.86h-27.78a3.86 3.86 0 00-3.86 3.86 17.75 17.75 0 0035.5.14v-.14a3.86 3.86 0 00-3.86-3.86zm0 7.72z"/><ellipse class="cls-4" cx="220" cy="129.06" rx="10.33" ry="4.63"/><circle class="cls-8" cx="224.63" cy="163" r="15.43"/><path fill="#d8f5df" d="M257.03 176.89l8.49-13.11 4.63 3.08 4.63-6.94 4.63 3.08 4.63-6.17 4.63 3.09 6.94-8.49v25.46h-38.58z"/><path class="cls-6" d="M257 178.44a1.52 1.52 0 01-.83-.25 1.55 1.55 0 01-.46-2.14l8.49-13.11a1.48 1.48 0 011-.67 1.52 1.52 0 011.17.22l3.34 2.23 3.78-5.66a1.54 1.54 0 012.14-.43l3.41 2.28 3.75-5a1.54 1.54 0 012.09-.36l3.47 2.31 6.06-7.41a1.55 1.55 0 012.39 2l-6.95 8.49a1.55 1.55 0 01-2.05.3l-3.41-2.27-3.76 5a1.54 1.54 0 01-2.09.36l-3.34-2.23-3.78 5.66a1.54 1.54 0 01-2.14.43l-3.28-2.26-7.64 11.8a1.54 1.54 0 01-1.36.71z"/><path class="cls-2" d="M257 174.19h-4.62a1.16 1.16 0 110-2.31H257a1.16 1.16 0 110 2.31zM257 166.48h-4.62a1.16 1.16 0 110-2.32H257a1.16 1.16 0 110 2.32zM257 158.76h-4.62a1.16 1.16 0 110-2.31H257a1.16 1.16 0 110 2.31zM257 151.05h-4.62a1.16 1.16 0 110-2.32H257a1.16 1.16 0 110 2.32zM291.75 182.68a1.16 1.16 0 01-1.15-1.16v-4.63a1.16 1.16 0 112.31 0v4.63a1.16 1.16 0 01-1.16 1.16zM284 182.68a1.16 1.16 0 01-1.16-1.16v-4.63a1.16 1.16 0 112.32 0v4.63a1.16 1.16 0 01-1.16 1.16zM276.32 182.68a1.15 1.15 0 01-1.15-1.16v-4.63a1.16 1.16 0 112.31 0v4.63a1.16 1.16 0 01-1.16 1.16zM268.61 182.68a1.16 1.16 0 01-1.16-1.16v-4.63a1.16 1.16 0 112.32 0v4.63a1.16 1.16 0 01-1.16 1.16zM260.89 182.68a1.16 1.16 0 01-1.16-1.16v-4.63a1.16 1.16 0 012.32 0v4.63a1.16 1.16 0 01-1.16 1.16z"/><path class="cls-2" d="M295.61 178.44H257a1.55 1.55 0 01-1.54-1.55V146a1.55 1.55 0 013.09 0v29.32h37a1.55 1.55 0 110 3.09z"/><rect class="cls-2" x="263.21" y="189.24" width="30.86" height="3.09" rx="1.41"/><circle class="cls-6" cx="257.81" cy="190.78" r="2.31"/><rect class="cls-2" x="263.21" y="195.41" width="20.06" height="3.09" rx="1.41"/><rect class="cls-2" x="215.37" y="189.24" width="26.23" height="3.09" rx="1.41"/><circle class="cls-10" cx="209.97" cy="190.78" r="2.31"/><rect class="cls-2" x="215.37" y="195.41" width="18.52" height="3.09" rx="1.41"/><circle class="cls-8" cx="209.97" cy="196.95" r="2.31"/><path class="cls-2" d="M148.25 169.56h-4.63a1.16 1.16 0 110-2.31h4.63a1.16 1.16 0 010 2.31zM148.25 160.3h-4.63a1.16 1.16 0 110-2.31h4.63a1.16 1.16 0 010 2.31zM148.25 151.05h-4.63a1.16 1.16 0 110-2.32h4.63a1.16 1.16 0 010 2.32zM168.31 182.68a1.16 1.16 0 01-1.16-1.16v-4.63a1.16 1.16 0 112.31 0v4.63a1.15 1.15 0 01-1.15 1.16zM156.73 182.68a1.15 1.15 0 01-1.15-1.16v-4.63a1.16 1.16 0 112.31 0v4.63a1.16 1.16 0 01-1.16 1.16z"/><rect class="cls-2" x="154.42" y="189.24" width="30.86" height="3.09" rx="1.41"/><circle class="cls-5" cx="149.02" cy="190.78" r="2.31"/><rect class="cls-2" x="154.42" y="195.41" width="15.43" height="3.09" rx="1.41"/><circle class="cls-11" cx="149.02" cy="196.95" r="2.31"/><path class="cls-5" d="M152.1 158.38h4.63v18.52h-4.63z"/><path class="cls-11" d="M156.73 149.12h4.63v27.78h-4.63z"/><path class="cls-5" d="M163.68 153.75h4.63v23.15h-4.63z"/><path class="cls-11" d="M168.31 164.55h4.63v12.34h-4.63z"/><path class="cls-2" d="M179.88 182.68a1.16 1.16 0 01-1.16-1.16v-4.63a1.16 1.16 0 012.32 0v4.63a1.16 1.16 0 01-1.16 1.16z"/><path class="cls-5" d="M175.25 159.92h4.63v16.97h-4.63z"/><path class="cls-11" d="M179.88 156.83h4.63v20.06h-4.63z"/><path class="cls-2" d="M191.45 182.68a1.15 1.15 0 01-1.15-1.16v-4.63a1.16 1.16 0 112.31 0v4.63a1.16 1.16 0 01-1.16 1.16z"/><path class="cls-5" d="M186.82 147.57h4.63v29.32h-4.63z"/><path class="cls-11" d="M191.45 152.2h4.63v24.69h-4.63z"/><path class="cls-2" d="M198.4 178.44h-50.15a1.55 1.55 0 01-1.55-1.55V146a1.55 1.55 0 013.09 0v29.32h48.61a1.55 1.55 0 010 3.09z"/><path class="cls-10" d="M224.63 145.26V163h17.75a17.75 17.75 0 00-17.75-17.74z"/></svg>