<svg id="Layer_1" data-name="Layer 1" xmlns="http://www.w3.org/2000/svg" viewBox="0 0 440 272"><defs><style>.cls-2{fill:#515979}.cls-4{fill:#fff}</style></defs><rect x="121.3" y="68.93" width="197.41" height="134.14" rx="11.39" fill="#d8ebfb"/><path class="cls-2" d="M307.31 72.73a7.59 7.59 0 017.6 7.59v111.36a7.59 7.59 0 01-7.6 7.59H132.69a7.59 7.59 0 01-7.6-7.59V80.32a7.59 7.59 0 017.6-7.59h174.62m0-7.59H132.69a15.2 15.2 0 00-15.19 15.18v111.36a15.2 15.2 0 0015.19 15.18h174.62a15.2 15.2 0 0015.19-15.18V80.32a15.2 15.2 0 00-15.19-15.18z"/><path d="M212 164.44l-86.9-91.71v20.6l76.29 81.37a12.67 12.67 0 0018.47 0l7.21-7.69a12.65 12.65 0 01-15.07-2.57z" fill="#acc9db"/><path class="cls-2" d="M220 171.91a16.49 16.49 0 01-12-5.2l-85.68-91.39a3.8 3.8 0 015.54-5.19l85.68 91.39a8.85 8.85 0 0012.92 0l85.68-91.39a3.8 3.8 0 015.54 5.19L232 166.71a16.49 16.49 0 01-12 5.2z"/><path class="cls-2" d="M314.91 203.07a3.78 3.78 0 01-2.82-1.26l-56.95-63.27a3.8 3.8 0 015.64-5.08l57 63.27a3.8 3.8 0 01-2.82 6.34zM125.09 203.07a3.8 3.8 0 01-2.82-6.34l56.94-63.27a3.8 3.8 0 015.65 5.08l-57 63.27a3.79 3.79 0 01-2.77 1.26zM242.14 116.45a2.45 2.45 0 01-1.19-.3 11 11 0 00-9 0 2.53 2.53 0 01-2.39-4.46 16.07 16.07 0 0113.78 0 2.53 2.53 0 01-1.2 4.76z"/><circle class="cls-2" cx="236.45" cy="105.38" r="8.86"/><circle class="cls-4" cx="238.66" cy="105.38" r="2.21"/><path class="cls-2" d="M232.43 84.16a10.9 10.9 0 012.51-.93 13.61 13.61 0 012.57-.37 13.26 13.26 0 015.34.92 11.07 11.07 0 014.6 3.38 9.75 9.75 0 012.16 5 2.59 2.59 0 01-4.16 2.4l-.49-.38a27.28 27.28 0 00-2.57-2A12.43 12.43 0 00240 90.8a18.94 18.94 0 00-2.95-1c-.54-.13-1.11-.27-1.7-.38a16.73 16.73 0 01-1.71-.39l-.93-.35a2.5 2.5 0 01-.25-4.57zM209.24 116.45a2.45 2.45 0 01-1.19-.3 11 11 0 00-9 0 2.53 2.53 0 11-2.39-4.46 16.07 16.07 0 0113.78 0 2.53 2.53 0 01-1.2 4.76z"/><circle class="cls-2" cx="203.55" cy="105.38" r="8.86"/><circle class="cls-4" cx="205.76" cy="105.38" r="2.21"/><path class="cls-2" d="M206.39 89.08a16.73 16.73 0 01-1.71.39c-.59.11-1.16.25-1.7.38a18.94 18.94 0 00-2.95 1 12.14 12.14 0 00-2.42 1.34 27.28 27.28 0 00-2.57 2l-.49.38a2.6 2.6 0 01-4.16-2.4 9.75 9.75 0 012.16-5 11.07 11.07 0 014.6-3.38 13.26 13.26 0 015.34-.92 13.61 13.61 0 012.57.37 10.9 10.9 0 012.51.93 2.5 2.5 0 011.1 3.36 2.47 2.47 0 01-1.34 1.21zM220 142.08a17.74 17.74 0 01-17.72-17.71 2.54 2.54 0 012.53-2.54h30.37a2.54 2.54 0 012.54 2.54A17.74 17.74 0 01220 142.08z"/><path class="cls-2" d="M235.19 124.37a15.19 15.19 0 01-30.38 0h30.38m0-5.07h-30.38a5.07 5.07 0 00-5.06 5.07 20.25 20.25 0 0040.5.2v-.2a5.06 5.06 0 00-5.06-5.07zm0 10.13z"/><ellipse cx="220" cy="134.49" rx="11.3" ry="5.06" fill="#ef7d7d"/></svg>