<svg id="Layer_1" data-name="Layer 1" xmlns="http://www.w3.org/2000/svg" viewBox="0 0 440 272"><defs><style>.cls-2{fill:#515979}.cls-4{fill:#f3f9fe}.cls-5{fill:#fff}</style></defs><rect x="172.1" y="47.76" width="95.8" height="176.47" rx="8.82" transform="rotate(-14 219.988 136.013)" fill="#747a94"/><path class="cls-2" d="M237.48 44.6a5.05 5.05 0 016.12 3.67L282 202.38a5 5 0 01-3.67 6.11l-75.81 18.91a5.05 5.05 0 01-6.12-3.67L158 69.62a5 5 0 013.67-6.11l75.81-18.91m-1.83-7.34l-75.83 18.91a12.62 12.62 0 00-9.18 15.28l38.43 154.11a12.62 12.62 0 0015.28 9.18l75.83-18.91a12.62 12.62 0 009.18-15.28L250.93 46.44a12.62 12.62 0 00-15.28-9.18z"/><path transform="rotate(-14 219.382 133.541)" fill="#d8ebfb" d="M171.49 75.57h95.8v115.97h-95.8z"/><path class="cls-2" d="M249.08 70.29l26.23 105.18-85.61 21.35-26.23-105.19 85.61-21.34m5.51-9.17L247.26 63l-85.62 21.3-7.34 1.83 1.83 7.33 26.23 105.19 1.83 7.34 7.34-1.83 85.61-21.35 7.34-1.83-1.83-7.34-26.23-105.18-1.83-7.34z"/><path class="cls-4" d="M219.05 189.5l-19.57 4.88-1.76-111.28 19.56-4.88 1.77 111.28zM238.62 184.62l-12.23 3.05-1.77-111.28 12.23-3.05 1.77 111.28z"/><path class="cls-2" d="M214.85 63.24l-24.46 6.09a2.52 2.52 0 11-1.22-4.89l24.46-6.1a2.52 2.52 0 011.22 4.9zM161.32 114.26a3.79 3.79 0 01-4.59-2.76l-3.66-14.67a3.78 3.78 0 117.34-1.83l3.66 14.67a3.79 3.79 0 01-2.75 4.59zM168.63 143.61a3.78 3.78 0 01-4.58-2.75l-3.66-14.68a3.78 3.78 0 017.34-1.83l3.66 14.65a3.78 3.78 0 01-2.76 4.61zM265.27 103.93a3.79 3.79 0 01-4.59-2.76L257 86.5a3.78 3.78 0 117.34-1.83L268 99.34a3.79 3.79 0 01-2.73 4.59z"/><circle class="cls-2" cx="237.38" cy="205.72" r="8.82"/><path class="cls-2" d="M228.29 132.64a1.89 1.89 0 01-1.49-3.42 17.67 17.67 0 019.76-2.44 1.89 1.89 0 11-.33 3.77 14 14 0 00-7.37 1.84 2.06 2.06 0 01-.57.25z"/><circle class="cls-2" cx="230.07" cy="121.55" r="7.56"/><circle class="cls-5" cx="231.9" cy="121.09" r="1.89"/><path class="cls-2" d="M222 105.58a11 11 0 013.53-2.34 14.31 14.31 0 014-1 12.37 12.37 0 014.34.36 8.52 8.52 0 014 2.34 2.67 2.67 0 01-1.5 4.43l-.68.12a20 20 0 01-2.92.26c-.94.06-1.87 0-2.87 0s-2 0-3.13-.13a20.61 20.61 0 01-3.45-.49L223 109a2.07 2.07 0 01-1.46-2.52 2.11 2.11 0 01.46-.9zM211.1 136.92a1.84 1.84 0 01-.62.05 14 14 0 00-7.37 1.84 1.89 1.89 0 01-2.06-3.17 17.69 17.69 0 019.76-2.44 1.89 1.89 0 01.29 3.72z"/><circle class="cls-2" cx="204.32" cy="127.97" r="7.56"/><circle class="cls-5" cx="206.16" cy="127.51" r="1.89"/><path class="cls-2" d="M204.42 113.84a21.48 21.48 0 01-2.82 2.06c-.93.58-1.83 1.1-2.71 1.58s-1.68 1-2.53 1.34a19.4 19.4 0 01-2.71 1.14l-.66.21a2.66 2.66 0 01-3.39-3.17 8.58 8.58 0 012.4-4 12.48 12.48 0 013.66-2.35 14 14 0 014-1 11.15 11.15 0 014.21.4 2.07 2.07 0 011.37 2.58 2.11 2.11 0 01-.56.89zM226.47 162a17.66 17.66 0 01-21.39-12.85 2.52 2.52 0 011.84-3.06l29.35-7.31a2.52 2.52 0 013.06 1.83A17.67 17.67 0 01226.47 162z"/><path class="cls-2" d="M236.88 141.17a15.12 15.12 0 11-29.35 7.32l29.35-7.32m-1.21-4.89l-29.35 7.32a5 5 0 00-3.68 6.11 20.17 20.17 0 0039.19-9.56 1.94 1.94 0 000-.2 5 5 0 00-6.1-3.67zm2.43 9.78z"/><ellipse cx="224.64" cy="154.62" rx="11.25" ry="5.04" transform="rotate(-14 224.649 154.608)" fill="#ef7d7d"/></svg>