<?xml version="1.0" encoding="utf-8"?>
<!-- Generator: Adobe Illustrator 25.0.1, SVG Export Plug-In . SVG Version: 6.00 Build 0)  -->
<svg version="1.1" id="Layer_1" xmlns="http://www.w3.org/2000/svg" xmlns:xlink="http://www.w3.org/1999/xlink" x="0px" y="0px"
	 viewBox="0 0 253.9 132.3" style="enable-background:new 0 0 253.9 132.3;" xml:space="preserve">
<style type="text/css">
	.st0{fill:#515979;}
	.st1{fill:#FFFFFF;}
	.st2{opacity:0.5;}
	.st3{fill:#CACDD7;}
</style>
<g>
	<g>
		<path class="st0" d="M107.3,57.8c4.8,0,7.2-2.1,7.2-6.3V36.1c0-4.2-2.4-6.3-7.2-6.3c-4.8,0-7.2,2.1-7.2,6.3v15.4
			C100.1,55.8,102.5,57.8,107.3,57.8z"/>
		<path class="st0" d="M28.5,93.1h-3.7v5.7h3.7C31.9,98.8,31.9,93.1,28.5,93.1z"/>
		<path class="st0" d="M60.8,92.4c-2.9,0-4.3,1.2-4.3,3.8v9.2c0,2.5,1.4,3.8,4.3,3.8c2.9,0,4.3-1.2,4.3-3.8v-9.2
			C65.1,93.6,63.7,92.4,60.8,92.4z"/>
		<path class="st0" d="M95.2,93.1h-3.7v5.7h3.7C98.6,98.8,98.6,93.1,95.2,93.1z"/>
		<polygon class="st0" points="187.4,104.6 191.8,104.6 189.6,96.4 		"/>
		<path class="st0" d="M249.7,107c1.6-3.4,2.4-7.2,2.4-11.4c0-10.5-5.2-18.7-13.5-22.8V44.2h2.2c7.3,0,13.2-5.9,13.2-13.2V14.4
			c0-7.3-5.9-13.2-13.2-13.2h-49.9c-2.8,0-5.4,0.9-7.5,2.4C175.2,0,166.8,0,163,0c-12.6,0-21.9,3.6-28.3,9c-6.9-5.9-16.4-9-27.4-9
			c-8.5,0-16.1,1.8-22.3,5.4c-2.4-2.5-5.8-4.1-9.6-4.1H57.6c-5.1,0-9.7,2.9-11.9,7.5l-1.3,2.8l-1.3-2.8c-2.2-4.6-6.8-7.6-11.9-7.6
			h-18C5.9,1.2,0,7.1,0,14.4v58.8c0,1.8,0.4,3.5,1,5.1c-0.6,1.5-0.9,3.1-0.9,4.8v35.3c0,7.3,5.9,13.2,13.2,13.2h11.5
			c6,0,11.1-4,12.7-9.5c0.8,1.1,1.8,2.1,2.8,3c5.2,4.8,12.3,7.3,20.6,7.3c4.7,0,9-0.8,12.8-2.4c1.9,1,4.1,1.6,6.4,1.6h11.5
			c6.1,0,11.3-4.2,12.7-9.9c0.9,1.2,1.9,2.3,2.9,3.3c3.6,3.3,10.1,7.3,20.5,7.3c5.2,0,9.4-1,12.8-2.4c1.9,1.1,4.1,1.7,6.4,1.7h36.7
			c2.1,0,4.2-0.5,6-1.4c1.8,0.9,3.9,1.4,6,1.4H208c0.2,0,0.4,0,0.5,0c0.2,0,0.4,0,0.7,0h11.5c1.2,0,2.3-0.2,3.4-0.4L249.7,107z"/>
		<path class="st0" d="M224.5,93.1h-3.8v5.1h3.8c1.5,0,2.5-1.1,2.5-2.6C227,94.1,226.1,93.1,224.5,93.1z"/>
		<g>
			<path class="st1" d="M13.2,14.4h18l13.2,27.9l13.3-27.9h17.9v58.8H57.6V48.1l-6.9,14.5H38l-7-14.5v25.1H13.2V14.4z"/>
			<path class="st1" d="M80.9,50.5V37.2c0-15,9.6-24,26.4-24s26.4,9,26.4,24v13.3c0,15-9.6,24-26.4,24S80.9,65.5,80.9,50.5z
				 M100.1,51.5c0,4.2,2.4,6.3,7.2,6.3c4.8,0,7.2-2.1,7.2-6.3V36.1c0-4.2-2.4-6.3-7.2-6.3c-4.8,0-7.2,2.1-7.2,6.3V51.5z"/>
			<path class="st1" d="M157,31.3c0,2.4,2.7,3.1,9.4,4.1c1.7,0.2,3.2,0.5,4.3,0.7c2.2,0.4,6.4,1.4,8.6,2.6c6.9,3.6,9.7,9.4,9.7,17.1
				c0,12.8-12.6,18.8-26.8,18.8c-12.3,0-22-4.1-24.9-12.3l-0.8-2.2l16.4-7l1.6,2.7c1.2,2,3.8,3,8,3c4.6,0,7-0.7,7-2.9
				c0-2.2-2.6-2.9-8.3-3.8c-12.3-2.1-23.7-4.7-23.7-20.2c0-11.3,9.6-18.6,25.5-18.6c12.6,0,20.1,3.2,24,11.1l1.2,2.5l-16.9,7.1
				l-1.2-2.3c-1.1-2.1-3.5-3.1-7.1-3.1C159,28.4,157,29.4,157,31.3z"/>
			<path class="st1" d="M206.2,31h-15.3V14.4h49.9V31h-15.3v42.3h-19.2V31z"/>
		</g>
		<g>
			<path class="st1" d="M24.8,108.7v9.7H13.3V83.1h16.3C37.8,83.1,43,87.9,43,96c0,8.1-5.1,12.7-13.3,12.7H24.8z M24.8,93.1v5.7h3.7
				c3.4,0,3.4-5.7,0-5.7H24.8z"/>
			<path class="st1" d="M45,104.8v-8c0-9,5.8-14.4,15.9-14.4s15.9,5.4,15.9,14.4v8c0,9-5.8,14.4-15.9,14.4S45,113.8,45,104.8z
				 M56.5,105.4c0,2.5,1.4,3.8,4.3,3.8c2.9,0,4.3-1.2,4.3-3.8v-9.2c0-2.5-1.4-3.8-4.3-3.8c-2.9,0-4.3,1.2-4.3,3.8V105.4z"/>
			<path class="st1" d="M91.5,108.7v9.7H80V83.1h16.3c8.1,0,13.4,4.7,13.4,12.9c0,8.1-5.1,12.7-13.3,12.7H91.5z M91.5,93.1v5.7h3.7
				c3.4,0,3.4-5.7,0-5.7H91.5z"/>
			<path class="st1" d="M131.7,105.7V83.1h11.5V105c0,8.8-5.6,14.2-15.6,14.2s-15.6-5.4-15.6-14.2V83.1h11.5v22.5
				c0,2.4,1.3,3.6,4,3.6C130.3,109.2,131.7,108,131.7,105.7z"/>
			<path class="st1" d="M146.9,83.1h11.5v25.3h13.3v10h-24.8V83.1z"/>
			<path class="st1" d="M184,83.1h11.5l12.5,35.3h-12.4l-1.3-4.8h-9.3l-1.3,4.8h-12.1L184,83.1z M189.6,96.4l-2.2,8.2h4.4
				L189.6,96.4z"/>
			<path class="st1" d="M220.7,118.4h-11.5V83.1h16.7c8,0,13,4.5,13,12.5c0,4.6-1.6,8-4.8,10.1l-6.6,12.7l-5-10.9h-1.8V118.4z
				 M220.7,93.1v5.1h3.8c1.5,0,2.5-1.1,2.5-2.6c0-1.4-0.9-2.4-2.5-2.4H220.7z"/>
		</g>
	</g>
	<g class="st2">
		<path class="st0" d="M220.5,111.6c-4,2.9-6.2,7.7-5.8,12.7l1.1,7.3h4.9c1.2,0,2.3-0.2,3.4-0.4l18.7-17.6l-8.4-3.5
			C229.8,108.1,224.5,108.7,220.5,111.6z"/>
	</g>
	<g>
		<path class="st3" d="M230.1,104.4c4.3-2.6,9.6-2.7,14-0.4l5.6,3l-25.6,24.1l-0.9-14.6C223.2,111.6,225.8,107,230.1,104.4z"/>
	</g>
</g>
</svg>
