<svg xmlns="http://www.w3.org/2000/svg" viewBox="0 0 440 272"><defs><style>.cls-2{fill:#667683}.cls-3{fill:#515979}.cls-7{fill:#75a5c3}.cls-8{opacity:.2;mix-blend-mode:multiply}</style></defs><g style="isolation:isolate"><g id="Layer_1" data-name="Layer 1"><path class="cls-2" d="M162 229.22a2.54 2.54 0 01-2.19-3.8l75.44-130.66a2.54 2.54 0 012.19-1.27 2.56 2.56 0 011.26.34l7.3 4.22a2.53 2.53 0 01.92 3.46L173.93 228a2.52 2.52 0 01-2.19 1.27z"/><path class="cls-3" d="M237.44 96l7.3 4.21-73 126.45H162L237.44 96m0-5.07a4.87 4.87 0 00-1.31.18 5.06 5.06 0 00-3.08 2.35l-75.43 130.7a5.06 5.06 0 004.38 7.59h9.74a5 5 0 004.38-2.53l73-126.45a5.06 5.06 0 00-1.86-6.91L240 91.64a5.05 5.05 0 00-2.53-.68z"/><path class="cls-2" d="M268.26 229.22a2.52 2.52 0 01-2.19-1.27l-73-126.44a2.54 2.54 0 01.93-3.46l7.31-4.22a2.56 2.56 0 011.26-.34 2.54 2.54 0 012.19 1.27l75.44 130.66a2.54 2.54 0 010 2.53 2.51 2.51 0 01-2.19 1.27z"/><path class="cls-3" d="M202.56 96L278 226.69h-9.74l-73-126.45 7.3-4.21m0-5.07a5.05 5.05 0 00-2.53.68l-7.3 4.22a5.06 5.06 0 00-1.86 6.91l73 126.45a5 5 0 004.38 2.53H278a5.06 5.06 0 004.38-7.59L207 93.49a5.06 5.06 0 00-3.08-2.35 4.87 4.87 0 00-1.31-.18z"/><rect class="cls-2" x="213.25" y="42.78" width="13.5" height="186.44" rx="2.53"/><path class="cls-3" d="M224.22 45.31v181.38h-8.44V45.31h8.44m0-5.06h-8.44a5.07 5.07 0 00-5.06 5.06v181.38a5.07 5.07 0 005.06 5.06h8.44a5.07 5.07 0 005.06-5.06V45.31a5.07 5.07 0 00-5.06-5.06z"/><path fill="#949fa8" d="M215.78 45.31h8.44v3.37h-8.44z"/><rect x="149.98" y="61.34" width="140.04" height="106.3" rx="2.53" fill="#fff"/><path class="cls-3" d="M287.49 63.87V165.1h-135V63.87h135m0-5.06h-135a5.07 5.07 0 00-5.06 5.06V165.1a5.07 5.07 0 005.06 5.07h135a5.07 5.07 0 005.06-5.07V63.87a5.07 5.07 0 00-5.06-5.06z"/><path fill="#b4ecfb" d="M161.79 86.65h116.42v69.18H161.79z"/><path class="cls-7" d="M146.61 177.76a5.06 5.06 0 110-10.12h146.78a5.06 5.06 0 110 10.12z"/><path class="cls-3" d="M293.39 170.17a2.53 2.53 0 110 5.06H146.61a2.53 2.53 0 110-5.06h146.78m0-5.07H146.61a7.6 7.6 0 100 15.19h146.78a7.6 7.6 0 100-15.19z"/><g class="cls-8"><path class="cls-3" d="M215.78 180.29h8.44v10.12h-8.44z"/></g><g class="cls-8"><path class="cls-3" d="M241.47 180.29l5.85 10.12h9.74l-5.85-10.12h-9.74z"/></g><g class="cls-8"><path class="cls-3" d="M188.79 180.29l-5.85 10.12h9.74l5.85-10.12h-9.74z"/></g><rect class="cls-7" x="145.76" y="61.34" width="148.48" height="13.5" rx="2.53"/><path class="cls-3" d="M291.71 63.87v8.44H148.29v-8.44h143.42m0-5.06H148.29a5.07 5.07 0 00-5.06 5.06v8.44a5.07 5.07 0 005.06 5.06h143.42a5.07 5.07 0 005.06-5.06v-8.44a5.07 5.07 0 00-5.06-5.06z"/><path fill="#9fc0d5" d="M148.29 63.87H291.7v3.37H148.29z"/><path class="cls-3" d="M224.66 96.61a1.69 1.69 0 01-1.66-1.69 5.91 5.91 0 0111.81 0 1.69 1.69 0 11-3.37 0 2.53 2.53 0 10-5.06 0 1.69 1.69 0 01-1.72 1.69zM226.83 81.47a6.91 6.91 0 012.42-.94 8.37 8.37 0 012.6-.1 7 7 0 012.59.8 5.42 5.42 0 012 1.85A1.45 1.45 0 01235 85.3h-.34c-.66-.12-1.17-.27-1.72-.37s-1.08-.21-1.65-.27l-1.78-.21a17 17 0 01-1.9-.23l-.36-.08a1.44 1.44 0 01-1.09-1.71 1.48 1.48 0 01.67-.96zM206.9 96.61a1.69 1.69 0 01-1.68-1.69 5.91 5.91 0 0111.81 0 1.69 1.69 0 01-3.38 0 2.53 2.53 0 10-5.06 0 1.69 1.69 0 01-1.69 1.69zM212.36 84.17a17 17 0 01-1.9.23l-1.78.21c-.57.06-1.1.19-1.65.27s-1.06.25-1.72.37h-.33a1.45 1.45 0 01-1.46-2.22 5.42 5.42 0 012-1.85 7 7 0 012.59-.8 8.37 8.37 0 012.6.1 6.91 6.91 0 012.42.94 1.44 1.44 0 01.45 2 1.42 1.42 0 01-.9.64zM220.24 106.08a20.84 20.84 0 01-10.37-2.74 1.69 1.69 0 011.7-2.92c5.2 3 12.26 3 16.78 0a1.68 1.68 0 111.86 2.81 18.05 18.05 0 01-9.97 2.85zM216.84 108.7a8.37 8.37 0 001.57.3 14.18 14.18 0 001.59.12c.53 0 1.07-.05 1.59-.11a9.15 9.15 0 001.56-.3 1.11 1.11 0 011.38.76 1.12 1.12 0 01-.29 1.11l-.64.62a4.49 4.49 0 01-1.73 1 6 6 0 01-3.74 0 4.39 4.39 0 01-1.72-1l-.64-.63a1.1 1.1 0 010-1.57 1.13 1.13 0 011.07-.3z"/><path fill="#ffe8a0" d="M161.79 155.82l32.06-29.52 13.5 11.81 29.52-24.47 14.34 15.19 27-22.78v49.77H161.79z"/><path class="cls-3" d="M161.79 158.36a2.53 2.53 0 01-1.71-4.4l32-29.52a2.53 2.53 0 013.38 0l11.88 10.4 27.87-23.09a2.52 2.52 0 013.45.21l12.7 13.44 25.17-21.23a2.53 2.53 0 013.26 3.87l-27 22.77a2.54 2.54 0 01-3.48-.19l-12.71-13.46-27.7 23a2.53 2.53 0 01-3.28-.05l-11.73-10.41-30.38 28a2.59 2.59 0 01-1.72.66z"/></g></g></svg>